<svg xmlns="http://www.w3.org/2000/svg" viewBox="0 0 800 560" role="img" aria-labelledby="title desc">
  <title id="title">Amazon Basics Outdoor Smart Plug</title>
  <desc id="desc">Stylized product placeholder illustration for an outdoor smart plug with weather cover.</desc>
  <rect width="800" height="560" fill="#f2ece3"/>
  <rect x="226" y="126" width="348" height="308" rx="36" fill="#313a36"/>
  <rect x="256" y="154" width="288" height="182" rx="24" fill="#4f5853"/>
  <rect x="282" y="180" width="104" height="126" rx="18" fill="#e4e7e4"/>
  <rect x="414" y="180" width="104" height="126" rx="18" fill="#e4e7e4"/>
  <g fill="#707973">
    <rect x="314" y="212" width="18" height="56" rx="9"/>
    <rect x="468" y="212" width="18" height="56" rx="9"/>
  </g>
  <rect x="332" y="346" width="136" height="46" rx="20" fill="#74836d"/>
  <path d="M400 346v-56" stroke="#74836d" stroke-width="12" stroke-linecap="round"/>
  <path d="M574 212c32 18 56 56 58 102 2 52-26 100-70 126" fill="none" stroke="#94a8a0" stroke-width="10" stroke-linecap="round"/>
  <path d="M592 176c18 8 40 26 56 52" fill="none" stroke="#bfd0c8" stroke-width="8" stroke-linecap="round"/>
  <text x="110" y="92" fill="#6a3d20" font-family="Cormorant Garamond, serif" font-size="50" font-weight="700">Outdoor smart plug control</text>
  <text x="110" y="130" fill="#57645d" font-family="Manrope, Arial, sans-serif" font-size="24">Weather-ready scheduling for patio lights and exterior devices</text>
</svg>
